<svg id="visual" viewBox="0 0 900 600" width="900" height="600" xmlns="http://www.w3.org/2000/svg" xmlns:xlink="http://www.w3.org/1999/xlink" version="1.1"><path d="M0 253L82 91L164 193L245 265L327 169L409 289L491 127L573 247L655 157L736 121L818 307L900 187L900 0L818 0L736 0L655 0L573 0L491 0L409 0L327 0L245 0L164 0L82 0L0 0Z" fill="#121212"></path><path d="M0 379L82 187L164 313L245 343L327 223L409 373L491 217L573 313L655 283L736 241L818 361L900 283L900 185L818 305L736 119L655 155L573 245L491 125L409 287L327 167L245 263L164 191L82 89L0 251Z" fill="#19232c"></path><path d="M0 445L82 319L164 445L245 403L327 277L409 463L491 271L573 415L655 349L736 295L818 451L900 343L900 281L818 359L736 239L655 281L573 311L491 215L409 371L327 221L245 341L164 311L82 185L0 377Z" fill="#1b3547"></path><path d="M0 505L82 379L164 481L245 481L327 361L409 511L491 337L573 469L655 403L736 391L818 505L900 397L900 341L818 449L736 293L655 347L573 413L491 269L409 461L327 275L245 401L164 443L82 317L0 443Z" fill="#174864"></path><path d="M0 601L82 601L164 601L245 601L327 601L409 601L491 601L573 601L655 601L736 601L818 601L900 601L900 395L818 503L736 389L655 401L573 467L491 335L409 509L327 359L245 479L164 479L82 377L0 503Z" fill="#035b82"></path></svg>