<svg id="visual" viewBox="0 0 540 960" width="540" height="960" xmlns="http://www.w3.org/2000/svg" xmlns:xlink="http://www.w3.org/1999/xlink" version="1.1"><rect x="0" y="0" width="540" height="960" fill="#000203"></rect><defs><linearGradient id="grad1_0" x1="0%" y1="0%" x2="100%" y2="100%"><stop offset="30%" stop-color="#000203" stop-opacity="1"></stop><stop offset="70%" stop-color="#000203" stop-opacity="1"></stop></linearGradient></defs><defs><linearGradient id="grad2_0" x1="0%" y1="0%" x2="100%" y2="100%"><stop offset="30%" stop-color="#000203" stop-opacity="1"></stop><stop offset="70%" stop-color="#000203" stop-opacity="1"></stop></linearGradient></defs><g transform="translate(540, 0)"><path d="M0 486C-57.4 465 -114.8 444.1 -175.7 424.1C-236.5 404.1 -300.6 385 -343.7 343.7C-386.7 302.3 -408.5 238.6 -428.7 177.6C-448.9 116.6 -467.4 58.3 -486 0L0 0Z" fill="#081119"></path></g><g transform="translate(0, 960)"><path d="M0 -486C46 -441.4 92 -396.9 158 -381.6C224.1 -366.3 310.3 -380.2 343.7 -343.7C377 -307.1 357.4 -219.9 372.3 -154.2C387.2 -88.5 436.6 -44.3 486 0L0 0Z" fill="#081119"></path></g></svg>